<svg width="22" height="22" viewBox="0 0 22 22" fill="none" xmlns="http://www.w3.org/2000/svg">
<circle opacity="0.1" cx="11" cy="11" r="11" fill="#E55454"/>
<path d="M12.947 11.2688C12.909 11.2321 12.8787 11.1882 12.8581 11.1396C12.8374 11.091 12.8268 11.0387 12.8268 10.9859C12.8268 10.9331 12.8374 10.8808 12.8581 10.8322C12.8787 10.7836 12.909 10.7397 12.947 10.7031L15.367 8.28306C15.5752 8.05964 15.6885 7.76414 15.6831 7.45881C15.6777 7.15348 15.554 6.86216 15.3381 6.64622C15.1222 6.43029 14.8308 6.3066 14.5255 6.30121C14.2202 6.29582 13.9247 6.40916 13.7013 6.61734L11.2813 9.03734C11.2446 9.07536 11.2007 9.10561 11.1521 9.12626C11.1035 9.14692 11.0512 9.15757 10.9984 9.15757C10.9456 9.15757 10.8933 9.14692 10.8447 9.12626C10.7961 9.10561 10.7522 9.07536 10.7155 9.03734L8.29555 6.61734C8.07213 6.40916 7.77663 6.29582 7.4713 6.30121C7.16597 6.3066 6.87465 6.43029 6.65871 6.64622C6.44278 6.86216 6.31909 7.15348 6.3137 7.45881C6.30831 7.76414 6.42165 8.05964 6.62983 8.28306L9.04983 10.7031C9.08786 10.7397 9.1181 10.7836 9.13876 10.8322C9.15941 10.8808 9.17006 10.9331 9.17006 10.9859C9.17006 11.0387 9.15941 11.091 9.13876 11.1396C9.1181 11.1882 9.08786 11.2321 9.04983 11.2688L6.62983 13.6888C6.40913 13.9098 6.28516 14.2093 6.28516 14.5216C6.28516 14.834 6.40913 15.1335 6.62983 15.3545C6.85082 15.5752 7.15037 15.6992 7.46269 15.6992C7.77501 15.6992 8.07456 15.5752 8.29555 15.3545L10.7155 12.9345C10.7522 12.8965 10.7961 12.8662 10.8447 12.8456C10.8933 12.8249 10.9456 12.8143 10.9984 12.8143C11.0512 12.8143 11.1035 12.8249 11.1521 12.8456C11.2007 12.8662 11.2446 12.8965 11.2813 12.9345L13.7013 15.3545C13.9222 15.5752 14.2218 15.6992 14.5341 15.6992C14.8464 15.6992 15.146 15.5752 15.367 15.3545C15.5877 15.1335 15.7117 14.834 15.7117 14.5216C15.7117 14.2093 15.5877 13.9098 15.367 13.6888L12.947 11.2688Z" fill="#E55454"/>
</svg>
