<svg width="100" height="20" viewBox="0 0 100 20" fill="none" xmlns="http://www.w3.org/2000/svg">
<path d="M6.15257 11.9569L3.56949 1.4342L3.5423 1.32544H1V16.7016H3.21601V10.6245L3.16163 8.43571L5.29607 16.7016L6.15257 11.9569Z" fill="#3E50F7"/>
<path d="M8.77621 1.32544L8.74902 1.4342L6.15234 11.9569L7.00884 16.7016L9.15688 8.43571L9.10249 10.6245V16.7016H11.3049V1.32544H8.77621Z" fill="#25224A"/>
<path d="M6.15276 11.9446L5.1875 16.2542L5.29626 16.7029H6.15276H7.00925L7.13161 16.2542L6.15276 11.9446Z" fill="#303798"/>
<path d="M94.5208 14.3496V9.94477H98.5042V7.60641H94.5208V3.691H99.0752V1.32544H92.3184V16.7016H99.1567V14.3496H94.5208Z" fill="#25224A"/>
<path d="M32.6765 8.62658C33.0216 7.83368 33.1931 6.97612 33.1795 6.11148C33.2678 4.87413 32.9478 3.64196 32.2686 2.60392C31.9343 2.17632 31.5009 1.83653 31.0058 1.61388C30.5108 1.39123 29.969 1.29242 29.4272 1.32598H25.8789V16.7021H28.0949V10.7882H29.3865L31.385 16.7021H33.6282V16.1447L31.4937 10.1356C32.0147 9.7463 32.4229 9.22551 32.6765 8.62658ZM30.9091 6.11148C30.943 6.7301 30.7813 7.3437 30.4469 7.86525C30.3349 8.04834 30.1767 8.19873 29.9881 8.30134C29.7996 8.40395 29.5874 8.45516 29.3729 8.44985H28.0133V3.71873H29.3049C29.5251 3.69824 29.7469 3.73652 29.9475 3.82966C30.1481 3.9228 30.3204 4.06748 30.4469 4.24894C30.7826 4.81006 30.9436 5.45849 30.9091 6.11148Z" fill="#25224A"/>
<path d="M22.5199 11.659C22.5287 12.4779 22.3472 13.2877 21.9897 14.0245C21.8464 14.2195 21.6537 14.3726 21.4314 14.4682C21.2092 14.5638 20.9654 14.5984 20.7253 14.5683C20.4762 14.5629 20.2346 14.4823 20.032 14.3372C19.7831 14.1409 19.583 13.8896 19.4474 13.6031C19.0419 12.5747 18.8611 11.4714 18.9172 10.3674V7.64838C18.8533 6.54011 19.0488 5.4322 19.4882 4.41274C19.609 4.14001 19.7959 3.90171 20.032 3.71938C20.2647 3.56286 20.5401 3.48213 20.8205 3.48826C21.0448 3.47061 21.2696 3.51445 21.4709 3.61506C21.6721 3.71567 21.8421 3.86925 21.9625 4.05926C22.3344 4.79687 22.5255 5.61238 22.5199 6.43842V6.80548H24.7359V6.43842C24.7638 5.08628 24.4003 3.7549 23.6891 2.60458C23.3832 2.13694 22.9628 1.75529 22.4679 1.49592C21.9729 1.23655 21.4199 1.10807 20.8613 1.12271C20.2198 1.11956 19.5895 1.28969 19.0367 1.61513C18.4839 1.94057 18.0293 2.40924 17.7208 2.97165C16.9407 4.4124 16.5693 6.03901 16.6468 7.67557V10.313C16.5702 11.955 16.9315 13.5878 17.6936 15.0442C17.9781 15.5671 18.3891 16.0104 18.889 16.3335C19.389 16.6567 19.9619 16.8494 20.5556 16.894C21.1492 16.9386 21.7445 16.8337 22.2872 16.589C22.8298 16.3442 23.3025 15.9673 23.6619 15.4928C24.3915 14.3638 24.77 13.0438 24.7495 11.6997V11.2919H22.5471L22.5199 11.659Z" fill="#25224A"/>
<path d="M82.2453 1.32544H80.0293V16.7016H82.2453V1.32544Z" fill="#25224A"/>
<path d="M15.2336 1.32544H13.0176V16.7016H15.2336V1.32544Z" fill="#25224A"/>
<path d="M69.221 13.6575C69.5148 12.5584 69.6521 11.4233 69.6288 10.2859V7.67562C69.7166 6.02838 69.3548 4.38828 68.582 2.93091C68.2677 2.37678 67.8121 1.91591 67.2616 1.59527C66.7111 1.27464 66.0854 1.10571 65.4483 1.10571C64.8113 1.10571 64.1856 1.27464 63.6351 1.59527C63.0846 1.91591 62.629 2.37678 62.3146 2.93091C61.5311 4.42844 61.1693 6.11074 61.2678 7.79798V10.517C61.1978 12.1399 61.5689 13.7514 62.3418 15.1802C62.6514 15.7276 63.1024 16.1818 63.6478 16.4952C64.1931 16.8085 64.8126 16.9694 65.4415 16.9611C65.7118 16.9622 65.9811 16.9302 66.2436 16.866L68.0518 18.9596L68.1334 19.0548L69.9007 17.6273L68.2149 15.6696C68.6823 15.0734 69.0245 14.3891 69.221 13.6575ZM63.5382 10.2859V7.67562C63.4765 6.58642 63.6673 5.4977 64.0956 4.49435C64.2086 4.19078 64.4011 3.92314 64.653 3.71943C64.8873 3.56769 65.1626 3.49175 65.4415 3.5019C65.7287 3.49457 66.0119 3.57008 66.2572 3.71943C66.5138 3.90007 66.7197 4.14347 66.8554 4.42637C67.278 5.45975 67.4638 6.57464 67.3992 7.68921V10.517C67.4432 11.5799 67.2481 12.6392 66.8282 13.6167C66.7094 13.8761 66.5175 14.0953 66.276 14.2474C66.0346 14.3995 65.754 14.478 65.4687 14.4732C65.1852 14.4862 64.9047 14.4101 64.6666 14.2557C64.4019 14.0688 64.1909 13.8156 64.0548 13.5215C63.6451 12.4946 63.4686 11.3894 63.5382 10.2859Z" fill="#25224A"/>
<path d="M76.3581 12.0248C76.4099 12.7131 76.2637 13.4019 75.9367 14.0097C75.7985 14.2007 75.6131 14.3526 75.3986 14.4503C75.1841 14.548 74.9479 14.5883 74.7131 14.5671C74.4783 14.5883 74.2421 14.548 74.0276 14.4503C73.8131 14.3526 73.6277 14.2007 73.4895 14.0097C73.1654 13.4005 73.0149 12.7138 73.0545 12.0248V1.32544H70.8793V12.0928C70.813 13.3356 71.1517 14.5664 71.8445 15.6004C72.1993 16.014 72.6394 16.346 73.1345 16.5736C73.6296 16.8012 74.1681 16.919 74.7131 16.919C75.258 16.919 75.7965 16.8012 76.2917 16.5736C76.7868 16.346 77.2269 16.014 77.5817 15.6004C78.2887 14.5815 78.642 13.3589 78.5877 12.12V1.32544H76.3581V12.0248Z" fill="#25224A"/>
<path d="M58.2348 11.6581C58.2436 12.477 58.0621 13.2868 57.7045 14.0237C57.5612 14.2186 57.3685 14.3718 57.1463 14.4674C56.924 14.563 56.6803 14.5975 56.4402 14.5675C56.1771 14.5704 55.92 14.4895 55.7061 14.3363C55.4534 14.1438 55.2525 13.8916 55.1215 13.6022C54.716 12.5738 54.5352 11.4706 54.5912 10.3666V7.64752C54.5274 6.53925 54.7229 5.43134 55.1622 4.41188C55.3059 4.12962 55.5216 3.89041 55.7876 3.71852C56.0203 3.56199 56.2958 3.48127 56.5761 3.4874C56.8004 3.46975 57.0253 3.51359 57.2265 3.6142C57.4277 3.71481 57.5977 3.86839 57.7181 4.0584C58.0759 4.79949 58.253 5.61482 58.2348 6.43755V6.80462H60.4508V6.43755C60.503 5.07707 60.1581 3.7308 59.4583 2.56293C59.1428 2.09476 58.7116 1.71607 58.2066 1.46358C57.7017 1.21109 57.14 1.09337 56.5761 1.12185C55.9344 1.11723 55.3034 1.28675 54.7504 1.61234C54.1974 1.93793 53.743 2.40741 53.4357 2.97079C52.6555 4.41154 52.2841 6.03815 52.3616 7.67471V10.3122C52.285 11.9541 52.6463 13.5869 53.4085 15.0433C53.6912 15.5662 54.1008 16.0098 54.5996 16.3332C55.0984 16.6566 55.6705 16.8494 56.2633 16.8941C56.8561 16.9388 57.4506 16.8338 57.9922 16.5888C58.5339 16.3438 59.0053 15.9666 59.3632 15.4919C60.1021 14.3665 60.4858 13.045 60.4644 11.6989V11.291H58.2619L58.2348 11.6581Z" fill="#25224A"/>
<path d="M90.7273 8.62614C91.0724 7.83323 91.2439 6.97568 91.2303 6.11103C91.3076 4.87283 90.9834 3.64271 90.3058 2.60348C89.9692 2.17849 89.5354 1.84059 89.0409 1.6182C88.5464 1.39581 88.0058 1.29544 87.4644 1.32553H83.9297V16.7017H86.1457V10.7878H87.5052L89.3678 16.6065V16.7017H91.5702V16.1443L89.5309 10.1352C90.0569 9.74762 90.4699 9.22667 90.7273 8.62614ZM88.5385 7.86481C88.4264 8.04789 88.2682 8.19828 88.0797 8.30089C87.8912 8.4035 87.679 8.45472 87.4644 8.4494H86.1049V3.71828H87.4644C87.6826 3.69885 87.9021 3.7377 88.1003 3.83085C88.2986 3.92401 88.4685 4.06813 88.5928 4.24849C88.9197 4.82187 89.0665 5.4803 89.0143 6.13822C89.023 6.72404 88.8625 7.29994 88.5521 7.79683L88.5385 7.86481Z" fill="#25224A"/>
<path d="M38.3182 1.00038C37.6778 0.993009 37.048 1.16314 36.4984 1.4919C35.9489 1.82066 35.5012 2.29521 35.2049 2.86292C34.4369 4.33183 34.0754 5.97932 34.158 7.63482V10.3539C34.0964 11.9689 34.4722 13.5706 35.2457 14.9898C35.5582 15.5257 36.0072 15.969 36.547 16.2747C37.0867 16.5804 37.6979 16.7375 38.3182 16.73C38.9538 16.7472 39.5816 16.5872 40.1315 16.2678C40.6813 15.9485 41.1314 15.4824 41.4315 14.9218C42.1951 13.442 42.5517 11.7857 42.4647 10.1227V7.40371C42.5403 5.75863 42.1691 4.12377 41.3907 2.67259C41.0728 2.14649 40.6207 1.71439 40.0808 1.42054C39.5409 1.1267 38.9326 0.981695 38.3182 1.00038ZM39.6777 4.35839C40.1003 5.39177 40.2861 6.50666 40.2215 7.62123V10.3403C40.2742 11.4201 40.0837 12.498 39.6641 13.4943C39.5417 13.763 39.3432 13.9899 39.0931 14.1469C38.8465 14.2942 38.5646 14.372 38.2774 14.372C37.9901 14.372 37.7083 14.2942 37.4617 14.1469C37.2012 13.9611 36.9909 13.7135 36.8499 13.4264C36.445 12.3935 36.2732 11.284 36.3469 10.1771V7.56685C36.2859 6.46887 36.4765 5.37146 36.9043 4.35839C37.053 4.0987 37.2631 3.87934 37.516 3.71942C37.7542 3.56496 38.0346 3.4889 38.3182 3.50189C38.6055 3.49298 38.8891 3.56862 39.1339 3.71942C39.3899 3.89491 39.596 4.13381 39.7321 4.41277L39.6777 4.35839Z" fill="#25224A"/>
<path d="M48.2689 1.32544H46.4199L42.6133 16.7016H44.8837L45.7674 12.8949H48.9214L49.7779 16.5928V16.7016H52.0619L48.2961 1.4342L48.2689 1.32544ZM48.3776 10.5158H46.3112L47.3444 6.04296L48.3776 10.5158Z" fill="#25224A"/>
</svg>
