<?xml version="1.0" standalone="no"?>
<!DOCTYPE svg PUBLIC "-//W3C//DTD SVG 20010904//EN"
 "http://www.w3.org/TR/2001/REC-SVG-20010904/DTD/svg10.dtd">
<svg version="1.0" xmlns="http://www.w3.org/2000/svg"
 width="300.000000pt" height="300.000000pt" viewBox="0 0 300.000000 300.000000"
 preserveAspectRatio="xMidYMid meet">
<metadata>
Created by potrace 1.11, written by Peter Selinger 2001-2013
</metadata>
<g transform="translate(0.000000,300.000000) scale(0.100000,-0.100000)"
fill="#000000" stroke="none">
<path d="M0 1723 c1 -863 4 -1294 11 -1328 40 -187 206 -349 394 -385 65 -12
2172 -10 2210 2 161 53 261 130 324 253 63 121 61 68 61 1230 0 850 -3 1071
-14 1117 -43 183 -202 340 -384 377 -37 8 -446 11 -1328 11 l-1274 0 0 -1277z"/>
</g>
</svg>
